<?xml version="1.0" standalone="no"?>
<!DOCTYPE svg PUBLIC "-//W3C//DTD SVG 20010904//EN"
 "http://www.w3.org/TR/2001/REC-SVG-20010904/DTD/svg10.dtd">
<svg version="1.0" xmlns="http://www.w3.org/2000/svg"
 width="614.000000pt" height="614.000000pt" viewBox="0 0 614.000000 614.000000"
 preserveAspectRatio="xMidYMid meet">
<metadata>
Created by potrace 1.14, written by Peter Selinger 2001-2017
</metadata>
<g transform="translate(0.000000,614.000000) scale(0.100000,-0.100000)"
fill="#000000" stroke="none">
<path d="M2533 6117 c-99 -35 -159 -105 -178 -210 -5 -27 -2 -40 17 -61 20
-23 25 -25 40 -14 10 7 20 29 23 48 16 92 69 149 162 171 53 12 881 16 966 5
47 -7 110 -38 134 -67 6 -8 19 -39 28 -69 9 -30 20 -62 24 -70 21 -40 73 -9
65 38 -21 118 -62 178 -149 219 l-60 28 -505 2 c-495 2 -506 1 -567 -20z"/>
<path d="M2812 5883 c-4 -1 -63 -4 -132 -6 -140 -5 -194 -22 -251 -79 -28 -29
-59 -82 -65 -115 -17 -92 -9 -118 37 -111 16 2 25 16 39 61 31 99 67 140 138
155 59 13 988 12 1027 -1 17 -6 41 -18 55 -27 29 -20 70 -92 70 -122 0 -22 18
-60 33 -69 16 -11 46 2 53 23 14 46 -25 154 -75 204 -17 18 -53 43 -79 55 -46
23 -55 24 -347 27 -165 1 -344 3 -398 5 -53 1 -101 1 -105 0z"/>
<path d="M2565 5551 c-56 -14 -106 -44 -145 -88 -73 -83 -70 -53 -69 -848 1
-677 2 -712 20 -762 25 -65 82 -127 145 -155 49 -23 54 -23 554 -24 376 0 516
3 548 12 91 26 170 103 193 188 15 55 13 1424 -2 1481 -24 92 -104 171 -195
194 -47 13 -998 14 -1049 2z m1049 -88 c41 -20 84 -61 104 -98 14 -27 16 -107
17 -739 0 -662 -1 -712 -18 -750 -10 -22 -32 -52 -49 -67 -58 -53 -73 -54
-593 -54 -440 1 -483 3 -517 19 -53 26 -96 73 -110 121 -11 40 -16 1385 -5
1432 15 60 58 112 117 137 53 23 1007 23 1054 -1z"/>
<path d="M2366 3674 c-19 -19 -15 -71 11 -136 23 -56 39 -77 84 -111 69 -52
127 -57 634 -56 469 1 521 4 595 42 39 19 84 69 104 114 25 57 27 142 4 157
-28 17 -50 -4 -71 -70 -23 -71 -57 -118 -100 -141 -29 -15 -80 -17 -497 -18
-466 -1 -537 3 -597 31 -41 18 -79 68 -88 114 -16 86 -43 111 -79 74z"/>
<path d="M2373 3420 c-18 -7 -21 -15 -18 -49 10 -123 77 -209 190 -244 57 -17
1023 -17 1081 0 72 22 131 69 158 126 47 98 44 181 -7 173 -25 -3 -32 -14 -52
-75 -10 -30 -22 -60 -27 -65 -39 -49 -60 -65 -94 -76 -30 -11 -144 -14 -479
-15 -242 0 -452 3 -468 7 -16 4 -25 3 -22 -3 4 -5 -4 -5 -19 1 -14 5 -26 8
-26 5 0 -8 -75 27 -94 43 -25 24 -54 82 -58 122 -5 40 -33 62 -65 50z"/>
<path d="M355 2252 c-2 -2 18 -41 45 -85 26 -45 56 -96 66 -114 64 -108 222
-374 243 -408 14 -22 26 -42 26 -45 0 -3 13 -24 28 -47 15 -24 27 -47 27 -53
0 -5 4 -10 9 -10 5 0 11 -6 13 -13 8 -31 504 -854 513 -851 6 3 24 30 41 62
17 31 77 135 133 231 55 95 101 176 101 179 0 3 6 13 14 21 7 9 31 48 51 86
21 39 41 75 45 80 9 12 10 815 1 815 -3 0 -67 -104 -141 -232 -74 -127 -140
-241 -147 -252 -7 -12 -20 -36 -29 -53 -21 -40 -28 -41 -47 -5 -23 45 -406
675 -417 686 -9 9 -566 17 -575 8z"/>
<path d="M1799 2250 c-3 -12 -5 -1616 -2 -1625 4 -11 521 -14 538 -3 12 8 14
1612 2 1624 -9 9 -536 12 -538 4z"/>
<path d="M2598 2249 c-8 -5 -13 -178 -9 -329 l1 -26 311 1 311 0 20 25 c19 24
112 131 133 154 6 6 35 40 65 76 30 36 61 71 68 79 7 7 10 16 7 19 -8 8 -894
9 -907 1z"/>
<path d="M3572 2185 c-32 -38 -59 -72 -62 -75 -3 -3 -21 -25 -40 -50 -19 -25
-42 -54 -52 -65 -9 -11 -60 -74 -112 -140 -53 -66 -102 -127 -109 -135 -7 -8
-34 -42 -60 -75 -27 -33 -56 -69 -65 -80 -9 -11 -79 -99 -156 -195 -78 -96
-143 -177 -146 -180 -3 -3 -17 -21 -31 -40 -15 -19 -35 -45 -45 -56 -11 -12
-30 -36 -44 -54 -14 -18 -31 -40 -39 -47 -8 -8 -25 -31 -38 -50 -23 -34 -24
-42 -22 -172 1 -75 4 -141 6 -147 4 -12 342 -12 361 0 6 4 40 41 74 84 34 42
67 82 73 88 5 7 22 27 37 45 14 19 62 77 105 129 43 52 140 172 216 265 76 94
148 181 160 195 12 14 84 102 160 195 129 157 185 225 230 278 21 25 20 19 22
92 2 33 4 65 5 70 1 6 1 15 0 20 -1 6 -1 45 -1 88 0 54 -3 77 -12 78 -7 0 -90
2 -185 2 l-174 2 -56 -70z"/>
<path d="M4040 2244 c0 -7 16 -56 36 -110 20 -55 55 -148 76 -209 22 -60 44
-119 48 -130 14 -37 58 -159 95 -265 21 -58 41 -114 46 -125 10 -23 150 -405
153 -420 4 -13 15 -45 26 -70 5 -11 16 -40 24 -65 36 -111 78 -216 90 -225 13
-10 500 -14 511 -4 4 5 -13 65 -41 139 -3 8 -5 17 -6 20 0 5 -14 43 -34 95 -4
11 -8 23 -9 28 -2 4 -3 8 -5 10 -1 1 -3 9 -5 17 -2 8 -32 94 -65 190 -95 270
-131 374 -134 385 -2 6 -6 17 -9 25 -3 8 -20 58 -37 110 -18 52 -36 104 -40
115 -5 11 -16 40 -24 65 -44 135 -146 424 -151 429 -4 3 -128 6 -276 6 -194 0
-269 -3 -269 -11z"/>
<path d="M5244 2245 c-1 -5 -10 -32 -19 -60 -9 -27 -18 -57 -20 -65 -2 -8 -16
-53 -30 -100 -15 -47 -33 -105 -40 -130 -7 -25 -45 -149 -83 -276 l-71 -230
58 -170 c32 -93 61 -176 63 -184 3 -8 11 -31 17 -50 7 -19 16 -48 21 -65 4
-16 19 -60 33 -97 14 -38 23 -68 20 -68 -4 0 -2 -5 5 -12 7 -7 12 -20 12 -30
0 -22 19 -24 25 -3 3 8 8 23 12 33 3 9 7 19 8 22 1 3 5 12 8 20 8 19 98 272
101 285 2 6 9 24 15 40 7 17 14 37 16 45 2 8 56 161 120 340 64 179 131 368
149 420 19 52 54 150 79 218 37 102 42 122 28 123 -95 7 -524 2 -527 -6z"/>
<path d="M350 1347 l0 -733 253 0 252 1 0 320 0 320 -32 47 c-18 26 -33 48
-33 51 0 2 -35 63 -79 134 -43 72 -80 135 -82 140 -10 23 -270 453 -274 453
-3 0 -5 -330 -5 -733z"/>
<path d="M3287 918 c-25 -29 -55 -64 -67 -78 -22 -26 -90 -104 -152 -174 -20
-22 -33 -43 -28 -46 5 -3 217 -5 472 -5 l463 1 0 177 1 177 -322 0 -321 0 -46
-52z"/>
<path d="M3283 250 c-50 -22 -77 -63 -76 -117 1 -99 107 -162 192 -115 49 27
61 48 36 66 -17 12 -23 11 -50 -9 -28 -22 -33 -22 -68 -10 -50 17 -51 19 -51
67 0 30 6 46 23 59 30 24 52 24 100 -1 33 -16 41 -17 51 -5 12 15 3 42 -23 63
-24 20 -92 21 -134 2z"/>
<path d="M3562 262 c-9 -3 -12 -41 -12 -133 l0 -130 75 2 c62 1 78 5 85 20 13
24 -3 33 -51 30 -28 -1 -40 3 -48 17 -14 26 0 41 32 38 16 -2 34 3 42 11 21
20 7 45 -24 43 -46 -3 -51 -1 -51 29 0 28 2 29 48 27 44 -1 47 1 47 24 0 24
-2 25 -65 26 -36 0 -71 -1 -78 -4z"/>
<path d="M3813 253 c-7 -14 -9 -164 -4 -241 1 -14 119 -15 142 -1 23 14 -16
46 -51 41 -36 -5 -40 8 -38 118 1 42 -1 81 -6 88 -11 18 -34 15 -43 -5z"/>
<path d="M4041 261 c-21 -14 -20 -181 2 -214 37 -57 150 -57 193 2 7 8 12 58
13 112 2 79 -1 98 -14 102 -36 14 -45 -2 -46 -87 -1 -44 -1 -86 0 -93 3 -26
-69 -42 -89 -19 -7 10 -13 50 -14 108 -1 96 -9 112 -45 89z"/>
<path d="M4355 261 c-3 -5 -4 -64 -3 -130 2 -141 -4 -136 136 -122 15 1 16 27
1 37 -7 4 -26 7 -43 8 l-31 1 -5 104 c-5 98 -6 104 -27 107 -12 2 -24 0 -28
-5z"/>
<path d="M4638 248 c-8 -13 -18 -34 -22 -48 -4 -14 -18 -54 -31 -90 -38 -105
-39 -110 -18 -110 22 1 47 19 55 41 10 27 88 16 113 -16 24 -29 40 -32 49 -10
6 16 -66 219 -86 243 -16 19 -44 14 -60 -10z m51 -89 c17 -50 14 -65 -14 -64
-35 2 -38 8 -25 54 13 49 24 52 39 10z"/>
<path d="M4879 267 c-1 -1 -3 -57 -4 -125 -1 -98 1 -125 13 -135 8 -6 18 -11
21 -10 10 3 20 37 20 70 1 43 16 50 37 16 26 -42 66 -83 80 -83 25 0 25 22 0
55 -30 38 -33 60 -11 73 42 23 30 113 -16 127 -18 6 -137 16 -140 12z m112
-57 c10 -6 19 -17 19 -25 0 -16 -30 -35 -55 -35 -20 0 -36 41 -23 58 13 15 33
15 59 2z"/>
<path d="M5184 259 c-18 -6 -20 -16 -18 -120 1 -63 2 -119 3 -124 1 -11 146
-14 156 -3 4 3 2 15 -3 25 -8 13 -20 18 -51 17 -31 -2 -44 3 -51 16 -12 22 9
42 42 40 43 -4 49 0 46 23 -2 18 -10 22 -41 23 -22 1 -43 7 -47 14 -10 16 -2
40 14 41 9 1 40 4 84 8 15 1 16 27 1 37 -16 10 -112 12 -135 3z"/>
<path d="M5453 258 c-34 -16 -50 -65 -32 -96 8 -14 21 -28 29 -32 59 -27 75
-38 78 -52 4 -22 -33 -29 -65 -13 -27 14 -53 6 -53 -16 0 -18 54 -43 93 -42
72 2 107 69 64 122 -7 8 -31 23 -54 33 -23 10 -45 23 -49 29 -11 18 16 28 49
18 17 -5 31 -8 32 -6 0 1 7 10 14 19 12 16 10 20 -22 33 -42 17 -54 18 -84 3z"/>
</g>
</svg>
